<svg width="94" height="50" viewBox="0 0 94 50" fill="none" xmlns="http://www.w3.org/2000/svg">
<path d="M19.08 47.84L12.76 46.76V37.28C12.2533 37.8933 11.6667 38.3733 11 38.72C10.3333 39.0667 9.53333 39.24 8.6 39.24C7.34667 39.24 6.24 39 5.28 38.52C4.34667 38.04 3.56 37.3733 2.92 36.52C2.30667 35.64 1.84 34.5867 1.52 33.36C1.22667 32.1333 1.08 30.7733 1.08 29.28C1.08 27.76 1.32 26.3467 1.8 25.04C2.30667 23.7333 3 22.6133 3.88 21.68C4.76 20.72 5.81333 19.9733 7.04 19.44C8.26667 18.9067 9.62667 18.64 11.12 18.64C11.9467 18.64 12.8267 18.7067 13.76 18.84C14.72 18.9733 15.5867 19.1067 16.36 19.24C17.2667 19.4 18.1733 19.5867 19.08 19.8V47.84ZM9.84 34.6C10.2667 34.6 10.6533 34.4133 11 34.04C11.3733 33.6667 11.68 33.1733 11.92 32.56C12.1867 31.9467 12.3867 31.24 12.52 30.44C12.68 29.6133 12.76 28.76 12.76 27.88V23.6C12.5733 23.52 12.3067 23.4533 11.96 23.4C11.64 23.32 11.36 23.28 11.12 23.28C10.48 23.28 9.94667 23.4267 9.52 23.72C9.09333 23.9867 8.74667 24.3733 8.48 24.88C8.24 25.36 8.06667 25.9467 7.96 26.64C7.85333 27.3333 7.8 28.08 7.8 28.88C7.8 29.6267 7.81333 30.3467 7.84 31.04C7.86667 31.7067 7.94667 32.3067 8.08 32.84C8.24 33.3733 8.45333 33.8 8.72 34.12C8.98667 34.44 9.36 34.6 9.84 34.6Z" fill="white"/>
<path d="M24.88 39V25.368H22.448V22.168H24.88V20.024C24.88 19.2773 24.9973 18.5733 25.232 17.912C25.488 17.2293 25.9253 16.6747 26.544 16.248C27.1627 15.8213 28.0267 15.608 29.136 15.608C29.456 15.608 29.776 15.6293 30.096 15.672C30.4373 15.7147 30.7573 15.7787 31.056 15.864C31.3547 15.928 31.6107 16.0027 31.824 16.088V18.808H30.224C29.7547 18.808 29.392 18.936 29.136 19.192C28.9013 19.4267 28.784 19.7787 28.784 20.248V22.168H31.824V25.368H28.784V39H24.88ZM33.904 19.576V15.864H37.808V19.576H33.904ZM33.904 39V22.168H37.808V39H33.904ZM41.955 39V15.864H45.859V39H41.955ZM50.0175 39V22.168H53.2815L53.6015 24.408H53.8255C54.1882 23.896 54.6042 23.448 55.0735 23.064C55.5428 22.6587 56.0762 22.3493 56.6735 22.136C57.2922 21.9013 57.9642 21.784 58.6895 21.784C59.6708 21.784 60.5455 21.9867 61.3135 22.392C62.0815 22.7973 62.6788 23.4693 63.1055 24.408H63.3295C63.6922 23.896 64.1188 23.448 64.6095 23.064C65.1002 22.6587 65.6655 22.3493 66.3055 22.136C66.9455 21.9013 67.6388 21.784 68.3855 21.784C69.3882 21.784 70.2735 21.9653 71.0415 22.328C71.8095 22.6907 72.4175 23.288 72.8655 24.12C73.3135 24.952 73.5375 26.0613 73.5375 27.448V39H69.6335V28.248C69.6335 27.672 69.5695 27.192 69.4415 26.808C69.3135 26.4027 69.1322 26.0933 68.8975 25.88C68.6842 25.6453 68.4068 25.4747 68.0655 25.368C67.7455 25.2613 67.3935 25.208 67.0095 25.208C66.3908 25.208 65.8362 25.3787 65.3455 25.72C64.8548 26.0613 64.4602 26.5307 64.1615 27.128C63.8842 27.7253 63.7455 28.4187 63.7455 29.208V39H59.8415V28.248C59.8415 27.672 59.7775 27.192 59.6495 26.808C59.5215 26.4027 59.3402 26.0933 59.1055 25.88C58.8922 25.6453 58.6148 25.4747 58.2735 25.368C57.9535 25.2613 57.6015 25.208 57.2175 25.208C56.5988 25.208 56.0335 25.3787 55.5215 25.72C55.0308 26.0613 54.6362 26.5307 54.3375 27.128C54.0602 27.7253 53.9215 28.4187 53.9215 29.208V39H50.0175ZM84.812 39.384C83.02 39.384 81.5267 39.0747 80.332 38.456C79.1373 37.816 78.2413 36.8453 77.644 35.544C77.0467 34.2427 76.748 32.5893 76.748 30.584C76.748 28.5573 77.0467 26.904 77.644 25.624C78.2413 24.3227 79.1373 23.3627 80.332 22.744C81.5267 22.104 83.02 21.784 84.812 21.784C86.4333 21.784 87.788 22.0933 88.876 22.712C89.9853 23.3093 90.8173 24.2373 91.372 25.496C91.9267 26.7547 92.204 28.3867 92.204 30.392V31.544H80.748C80.7907 32.5893 80.9507 33.4747 81.228 34.2C81.5053 34.904 81.932 35.4373 82.508 35.8C83.1053 36.1413 83.884 36.312 84.844 36.312C85.3347 36.312 85.7933 36.248 86.22 36.12C86.6467 35.992 87.02 35.8 87.34 35.544C87.66 35.2667 87.9053 34.9253 88.076 34.52C88.268 34.1147 88.364 33.6453 88.364 33.112H92.204C92.204 34.1787 92.012 35.1067 91.628 35.896C91.2653 36.6853 90.7427 37.336 90.06 37.848C89.3987 38.36 88.62 38.744 87.724 39C86.828 39.256 85.8573 39.384 84.812 39.384ZM80.812 28.792H88.14C88.14 28.088 88.0547 27.4907 87.884 27C87.7347 26.5093 87.5107 26.104 87.212 25.784C86.9347 25.464 86.5933 25.24 86.188 25.112C85.7827 24.9627 85.324 24.888 84.812 24.888C83.98 24.888 83.276 25.0267 82.7 25.304C82.1453 25.5813 81.7187 26.008 81.42 26.584C81.1213 27.16 80.9187 27.896 80.812 28.792Z" fill="white"/>
<path d="M24.904 48.144C24.152 48.144 23.596 47.936 23.236 47.52C22.876 47.104 22.696 46.52 22.696 45.768V41.664H25.084V45.48C25.084 45.608 25.1 45.728 25.132 45.84C25.172 45.952 25.224 46.048 25.288 46.128C25.352 46.208 25.436 46.272 25.54 46.32C25.644 46.36 25.76 46.38 25.888 46.38C26.088 46.38 26.26 46.336 26.404 46.248C26.556 46.152 26.672 46.028 26.752 45.876C26.84 45.724 26.884 45.56 26.884 45.384V41.664H29.272V48H27.316L27.196 47.04H27.112C26.96 47.272 26.764 47.472 26.524 47.64C26.292 47.808 26.036 47.932 25.756 48.012C25.476 48.1 25.192 48.144 24.904 48.144ZM34.1439 48.144C33.3839 48.144 32.7239 48.028 32.1639 47.796C31.6119 47.556 31.1839 47.192 30.8799 46.704C30.5839 46.216 30.4359 45.592 30.4359 44.832C30.4359 44.088 30.5839 43.472 30.8799 42.984C31.1759 42.496 31.5879 42.132 32.1159 41.892C32.6519 41.644 33.2799 41.52 33.9999 41.52C34.7599 41.52 35.4039 41.64 35.9319 41.88C36.4679 42.112 36.8759 42.472 37.1559 42.96C37.4359 43.448 37.5759 44.072 37.5759 44.832V45.24H32.8239C32.8239 45.528 32.8639 45.776 32.9439 45.984C33.0319 46.192 33.1679 46.352 33.3519 46.464C33.5439 46.568 33.7919 46.62 34.0959 46.62C34.3119 46.62 34.4919 46.596 34.6359 46.548C34.7879 46.5 34.9079 46.436 34.9959 46.356C35.0919 46.268 35.1599 46.168 35.1999 46.056C35.2399 45.944 35.2599 45.824 35.2599 45.696H37.5759C37.5759 46.072 37.5039 46.412 37.3599 46.716C37.2159 47.02 36.9999 47.28 36.7119 47.496C36.4239 47.704 36.0639 47.864 35.6319 47.976C35.2079 48.088 34.7119 48.144 34.1439 48.144ZM32.8359 44.112H35.1639C35.1639 43.944 35.1399 43.796 35.0919 43.668C35.0439 43.532 34.9719 43.42 34.8759 43.332C34.7879 43.236 34.6759 43.164 34.5399 43.116C34.4119 43.068 34.2639 43.044 34.0959 43.044C33.8319 43.044 33.6119 43.088 33.4359 43.176C33.2599 43.264 33.1239 43.388 33.0279 43.548C32.9319 43.7 32.8679 43.888 32.8359 44.112Z" fill="white"/>
</svg>
