<svg width="20" height="20" viewBox="0 0 20 20" fill="none" xmlns="http://www.w3.org/2000/svg">
<g clip-path="url(#clip0_6_176)">
<path d="M2.93002 17.07C1.97492 16.1475 1.21309 15.0441 0.689004 13.824C0.164914 12.604 -0.110948 11.2918 -0.122486 9.96401C-0.134024 8.63622 0.118993 7.31942 0.621801 6.09046C1.12461 4.8615 1.86714 3.74498 2.80607 2.80605C3.745 1.86712 4.86151 1.12459 6.09048 0.621782C7.31944 0.118974 8.63624 -0.134043 9.96403 -0.122505C11.2918 -0.110967 12.604 0.164895 13.8241 0.688985C15.0441 1.21308 16.1476 1.9749 17.07 2.93C18.8916 4.81602 19.8995 7.34204 19.8768 9.96401C19.854 12.586 18.8023 15.0941 16.9482 16.9482C15.0941 18.8023 12.586 19.854 9.96403 19.8767C7.34206 19.8995 4.81604 18.8916 2.93002 17.07ZM4.34002 15.66C5.84114 17.1611 7.87711 18.0044 10 18.0044C12.1229 18.0044 14.1589 17.1611 15.66 15.66C17.1611 14.1589 18.0045 12.1229 18.0045 10C18.0045 7.87709 17.1611 5.84112 15.66 4.34C14.1589 2.83887 12.1229 1.99555 10 1.99555C7.87711 1.99555 5.84114 2.83887 4.34002 4.34C2.83889 5.84112 1.99557 7.87709 1.99557 10C1.99557 12.1229 2.83889 14.1589 4.34002 15.66ZM14.24 7.17L11.41 10L14.24 12.83L12.83 14.24L10 11.41L7.17002 14.24L5.76002 12.83L8.59002 10L5.76002 7.17L7.17002 5.76L10 8.59L12.83 5.76L14.24 7.17Z" fill="white" fill-opacity="0.7"/>
</g>
<defs>
<clipPath id="clip0_6_176">
<rect width="20" height="20" fill="white"/>
</clipPath>
</defs>
</svg>
