<svg width="24" height="24" viewBox="0 0 24 24" fill="none" xmlns="http://www.w3.org/2000/svg">
<g clip-path="url(#clip0_6_171)">
<path d="M11.145 1.194L14.835 4.884C14.955 4.19729 15.3081 3.57295 15.8348 3.11625C16.9688 2.13 18.6713 2.136 19.812 3.0825L19.818 3.087L19.8233 3.0915C19.8908 3.1505 19.9558 3.2115 20.0183 3.2745V3.258L20.0783 3.33825C20.2163 3.48825 20.3368 3.648 20.4398 3.8175L20.865 4.3815C20.8875 4.41 20.9093 4.43875 20.9303 4.46775L20.9835 4.53825L20.979 4.53675C21.2978 5.00625 21.453 5.54175 21.4425 6.08925C21.4275 6.86625 21.0795 7.611 20.5013 8.19075C20.0788 8.62116 19.513 8.88139 18.9113 8.922L22.0568 12.0743C22.0918 12.1093 22.1248 12.1455 22.1558 12.183L22.1565 12.174L22.7423 12.897C22.9874 13.1836 23.1152 13.5522 23.1004 13.929C23.0855 14.3058 22.9289 14.6631 22.662 14.9295L20.3393 17.256C20.1729 17.4231 19.9746 17.5551 19.7562 17.6441C19.5377 17.7331 19.3037 17.7774 19.0678 17.7741C18.832 17.7709 18.5992 17.7203 18.3833 17.6254C18.1674 17.5305 17.9728 17.3931 17.811 17.2215L17.8118 17.232L17.1233 16.527H17.1413C16.9786 16.3517 16.8529 16.1456 16.7714 15.9207C16.69 15.6959 16.6546 15.457 16.6673 15.2183V15.2107L16.6688 15.2033C16.692 14.8741 16.6061 14.5464 16.4243 14.271C15.8543 14.1233 15.1463 14.3017 14.6873 14.832C14.301 15.2767 14.178 15.9142 14.3003 16.425C14.5733 16.6005 14.8898 16.68 15.2033 16.6673C15.63 16.6465 16.0498 16.7802 16.386 17.0437V17.0408L16.407 17.0602C16.455 17.0992 16.501 17.1407 16.545 17.1847L16.56 17.1997L16.6125 17.2545L17.3063 17.91L17.292 17.9085C17.6022 18.2433 17.7707 18.6852 17.762 19.1415C17.7533 19.5978 17.5682 20.033 17.2455 20.3558L14.9453 22.6605C14.4218 23.1855 13.6118 23.2417 13.0268 22.83L13.0335 22.8465L12.3008 22.2315C12.2253 22.1796 12.1548 22.1208 12.09 22.056L12.087 22.053L12.066 22.035H12.069L8.94752 18.9075C8.90777 19.4513 8.72327 20.0213 8.23502 20.5103C7.65002 21.096 6.89852 21.441 6.11852 21.4538C5.56339 21.4633 5.01902 21.3 4.56077 20.9865L4.56227 20.9925L3.81527 20.4323C3.66714 20.3399 3.52736 20.2347 3.39752 20.118L3.26027 20.0153H3.28727C2.73507 19.4694 2.41133 18.7338 2.3818 17.9579C2.35227 17.182 2.61916 16.424 3.12827 15.8378H3.12977C3.58277 15.3197 4.19898 14.9718 4.87652 14.8515L1.19327 11.1615C1.05268 11.0214 0.941119 10.855 0.864999 10.6717C0.788879 10.4885 0.749695 10.292 0.749695 10.0935C0.749695 9.89505 0.788879 9.69855 0.864999 9.51527C0.941119 9.332 1.05268 9.16556 1.19327 9.0255L3.54227 6.67125C3.70684 6.50593 3.90239 6.37467 4.11772 6.28497C4.33305 6.19526 4.56395 6.14887 4.79721 6.14846C5.03048 6.14804 5.26155 6.1936 5.4772 6.28253C5.69285 6.37146 5.88886 6.50202 6.05402 6.66675C6.15402 6.76525 6.24077 6.87325 6.31427 6.99075L6.31577 6.98775L6.85127 7.9155L6.84902 7.91475C6.93502 8.04875 6.99227 8.19825 7.02077 8.36325C7.05302 8.55525 7.03577 8.757 7.02602 8.86575L7.02377 8.895C7.01852 8.99775 7.03877 9.1335 7.08977 9.29175C7.72727 9.852 8.70752 9.7995 9.27977 9.13875C9.5211 8.85733 9.65376 8.49885 9.65376 8.12812C9.65376 7.7574 9.5211 7.39892 9.27977 7.1175L9.27902 7.11675C9.25364 7.08723 9.22712 7.05871 9.19952 7.03125C9.0793 6.98984 8.9543 6.96388 8.82752 6.954L8.73677 7.01025L8.73377 7.0125C8.59458 7.10104 8.43763 7.15788 8.27402 7.179C8.15088 7.19278 8.02623 7.1814 7.90763 7.14556C7.78902 7.10972 7.67892 7.05016 7.58402 6.9705L7.54202 6.942L7.48952 6.8895C7.45302 6.852 7.41802 6.814 7.38452 6.7755V6.7785L6.73052 6.10425L6.72752 6.10275L6.67502 6.05025C6.50975 5.88498 6.37865 5.68878 6.2892 5.47285C6.19976 5.25691 6.15372 5.02548 6.15372 4.79175C6.15372 4.55802 6.19976 4.32659 6.2892 4.11065C6.37865 3.89472 6.50975 3.69852 6.67502 3.53325L9.00977 1.194C9.14961 1.05316 9.31594 0.941377 9.49917 0.865097C9.68241 0.788817 9.87892 0.749546 10.0774 0.749546C10.2759 0.749546 10.4724 0.788817 10.6556 0.865097C10.8389 0.941377 11.0052 1.05316 11.145 1.194ZM10.0748 2.2515L10.071 2.25375L7.73627 4.593C7.68924 4.63903 7.66011 4.70028 7.65406 4.76581C7.64802 4.83134 7.66546 4.89689 7.70327 4.95075L7.70627 4.953L7.75877 5.0055C7.78587 5.03217 7.81816 5.053 7.85364 5.06667C7.88912 5.08035 7.92703 5.08659 7.96502 5.085H7.97027C8.4304 5.06334 8.88944 5.14661 9.31264 5.32852C9.73584 5.51043 10.1121 5.78622 10.413 6.135C10.8908 6.68916 11.1536 7.39647 11.1536 8.12812C11.1536 8.85978 10.8908 9.56709 10.413 10.1213C10.14 10.4378 9.8047 10.6947 9.42801 10.8759C9.05132 11.0572 8.64132 11.1588 8.2236 11.1746C7.80588 11.1903 7.38939 11.1199 7.00011 10.9675C6.61083 10.8152 6.25711 10.5843 5.96102 10.2893L5.95577 10.284L5.95127 10.2788C5.65118 9.97135 5.41848 9.60475 5.26804 9.20236C5.11759 8.79997 5.05271 8.37063 5.07752 7.94175V7.92825C5.07939 7.89376 5.07401 7.85925 5.06174 7.82696C5.04947 7.79467 5.03058 7.7653 5.00627 7.74075L5.00177 7.73625L4.99652 7.731C4.97091 7.70499 4.94038 7.68434 4.90671 7.67024C4.87304 7.65614 4.8369 7.64888 4.8004 7.64888C4.76389 7.64888 4.72775 7.65614 4.69408 7.67024C4.66041 7.68434 4.62988 7.70499 4.60427 7.731L2.25452 10.0852L2.25152 10.089L2.25077 10.0905L2.25002 10.0935V10.0958L2.25152 10.0973L2.25452 10.1018L6.63302 14.4877C7.05902 14.9152 7.05902 15.5978 6.63302 16.0253C6.50904 16.1502 6.3562 16.2428 6.18799 16.2947C6.01978 16.3466 5.84138 16.3563 5.66852 16.323C5.40981 16.2803 5.1445 16.3042 4.89756 16.3924C4.65063 16.4806 4.4302 16.6301 4.25702 16.827C4.01468 17.1084 3.88095 17.4672 3.87999 17.8385C3.87903 18.2099 4.01089 18.5694 4.25177 18.852C4.39006 19.0132 4.56025 19.1447 4.75159 19.2368C4.94294 19.329 5.15129 19.3805 5.36353 19.3881C5.57576 19.3957 5.78728 19.3593 5.98473 19.2811C6.18218 19.2029 6.36129 19.0846 6.51077 18.9338C6.68247 18.7615 6.81109 18.5512 6.88616 18.3198C6.96123 18.0885 6.98062 17.8427 6.94277 17.6025L6.94127 17.592L6.93977 17.5823C6.91596 17.4142 6.93155 17.2429 6.9853 17.0819C7.03906 16.9209 7.12951 16.7746 7.24952 16.6545L7.26452 16.6395C7.69202 16.212 8.37602 16.212 8.80352 16.6395L13.1513 20.9963L13.1535 20.9977L13.155 20.9993H13.1565L13.158 21H13.1595L13.1603 20.9993L13.164 20.9963L15.4988 18.657C15.525 18.631 15.5459 18.6 15.5601 18.5659C15.5743 18.5318 15.5817 18.4952 15.5817 18.4583C15.5817 18.4213 15.5743 18.3847 15.5601 18.3506C15.5459 18.3165 15.525 18.2855 15.4988 18.2595L15.4838 18.2445C15.4566 18.2177 15.4242 18.1969 15.3886 18.1832C15.3529 18.1695 15.3149 18.1633 15.2768 18.165H15.2723C14.8121 18.1867 14.3531 18.1034 13.9299 17.9215C13.5067 17.7396 13.1304 17.4638 12.8295 17.115C12.3518 16.5608 12.089 15.8535 12.089 15.1219C12.089 14.3902 12.3518 13.6829 12.8295 13.1287C13.1028 12.8125 13.4382 12.556 13.8149 12.375C14.1916 12.194 14.6015 12.0925 15.0191 12.0769C15.4368 12.0612 15.8532 12.1316 16.2424 12.2838C16.6316 12.436 16.9853 12.6667 17.2815 12.9615L17.2838 12.963C17.5899 13.2664 17.8271 13.6322 17.9792 14.0354C18.1312 14.4387 18.1946 14.87 18.165 15.3C18.1628 15.3391 18.1688 15.3782 18.1828 15.4148C18.1968 15.4514 18.2183 15.4846 18.246 15.5122C18.2716 15.5383 18.3022 15.5589 18.3358 15.573C18.3695 15.5871 18.4056 15.5944 18.4421 15.5944C18.4787 15.5944 18.5148 15.5871 18.5485 15.573C18.5821 15.5589 18.6127 15.5383 18.6383 15.5122L20.9955 13.1505L20.9985 13.1468L20.9993 13.1453V13.1437L21 13.1423V13.14L20.9985 13.1385L20.9955 13.1348L16.6245 8.7555C16.5232 8.65478 16.4427 8.535 16.3878 8.40307C16.3329 8.27114 16.3047 8.12965 16.3047 7.98675C16.3047 7.84385 16.3329 7.70237 16.3878 7.57043C16.4427 7.4385 16.5232 7.31872 16.6245 7.218C16.7485 7.09302 16.9013 7.00049 17.0696 6.94856C17.2378 6.89663 17.4162 6.88691 17.589 6.92025C17.8303 6.96078 18.0778 6.94313 18.3109 6.86878C18.544 6.79442 18.756 6.66551 18.9293 6.49275C19.079 6.34259 19.1962 6.16326 19.2737 5.9659C19.3512 5.76854 19.3873 5.55735 19.3798 5.34545C19.3723 5.13355 19.3213 4.92546 19.23 4.73409C19.1387 4.54272 19.009 4.37216 18.849 4.233C18.2603 3.74925 17.3843 3.7575 16.8195 4.248C16.6211 4.41957 16.4698 4.63907 16.3802 4.88561C16.2905 5.13215 16.2654 5.39753 16.3073 5.6565L16.3088 5.66625L16.3103 5.676C16.353 5.99475 16.2645 6.33975 16.0005 6.60375L15.9855 6.61875C15.558 7.04625 14.8748 7.04625 14.4473 6.61875L10.0935 2.265L10.0838 2.25525L10.08 2.2515H10.0785L10.077 2.25L10.0748 2.2515Z" fill="white"/>
</g>
<defs>
<clipPath id="clip0_6_171">
<rect width="24" height="24" fill="white"/>
</clipPath>
</defs>
</svg>
