<svg width="25" height="24" viewBox="0 0 25 24" fill="none" xmlns="http://www.w3.org/2000/svg">
<path d="M11.645 1.194L15.335 4.884C15.4549 4.19728 15.808 3.57295 16.3347 3.11625C17.4687 2.13 19.1712 2.136 20.312 3.0825L20.318 3.087L20.3232 3.0915C20.3907 3.1505 20.4557 3.2115 20.5182 3.2745V3.258L20.5782 3.33825C20.7162 3.48825 20.8367 3.648 20.9397 3.8175L21.365 4.3815C21.3875 4.41 21.4092 4.43875 21.4302 4.46775L21.4835 4.53825L21.479 4.53675C21.7977 5.00625 21.953 5.54175 21.9425 6.08925C21.9275 6.86625 21.5795 7.611 21.0012 8.19075C20.5788 8.62116 20.0129 8.88139 19.4112 8.922L22.5567 12.0742C22.5917 12.1092 22.6247 12.1455 22.6557 12.183L22.6565 12.174L23.2422 12.897C23.4873 13.1836 23.6152 13.5522 23.6003 13.929C23.5854 14.3058 23.4289 14.6631 23.162 14.9295L20.8392 17.256C20.6728 17.4231 20.4745 17.5551 20.2561 17.6441C20.0377 17.7331 19.8036 17.7773 19.5678 17.7741C19.332 17.7709 19.0992 17.7203 18.8833 17.6254C18.6674 17.5305 18.4727 17.3931 18.311 17.2215L18.3117 17.232L17.6232 16.527H17.6412C17.4786 16.3517 17.3528 16.1455 17.2714 15.9207C17.19 15.6959 17.1545 15.457 17.1672 15.2182V15.2107L17.1687 15.2032C17.192 14.8741 17.106 14.5464 16.9242 14.271C16.3542 14.1232 15.6462 14.3017 15.1872 14.832C14.801 15.2767 14.678 15.9142 14.8002 16.425C15.0732 16.6005 15.3897 16.68 15.7032 16.6672C16.1299 16.6465 16.5498 16.7802 16.886 17.0437V17.0407L16.907 17.0602C16.955 17.0992 17.001 17.1407 17.045 17.1847L17.06 17.1997L17.1125 17.2545L17.8062 17.91L17.792 17.9085C18.1022 18.2433 18.2706 18.6852 18.2619 19.1415C18.2533 19.5978 18.0682 20.033 17.7455 20.3557L15.4452 22.6605C14.9217 23.1855 14.1117 23.2417 13.5267 22.83L13.5335 22.8465L12.8007 22.2315C12.7252 22.1796 12.6547 22.1208 12.59 22.056L12.587 22.053L12.566 22.035H12.569L9.44746 18.9075C9.40771 19.4512 9.22321 20.0212 8.73496 20.5102C8.14996 21.096 7.39846 21.441 6.61846 21.4537C6.06332 21.4633 5.51896 21.3 5.06071 20.9865L5.06221 20.9925L4.31521 20.4322C4.16708 20.3399 4.0273 20.2347 3.89746 20.118L3.76021 20.0152H3.78721C3.23501 19.4694 2.91127 18.7338 2.88174 17.9579C2.85221 17.182 3.1191 16.424 3.62821 15.8377H3.62971C4.08271 15.3197 4.69892 14.9718 5.37646 14.8515L1.69321 11.1615C1.55262 11.0214 1.44106 10.855 1.36494 10.6717C1.28882 10.4884 1.24963 10.2919 1.24963 10.0935C1.24963 9.89504 1.28882 9.69854 1.36494 9.51527C1.44106 9.332 1.55262 9.16556 1.69321 9.0255L4.04221 6.67125C4.20678 6.50593 4.40232 6.37467 4.61766 6.28496C4.83299 6.19526 5.06388 6.14887 5.29715 6.14845C5.53042 6.14803 5.76148 6.19359 5.97714 6.28253C6.19279 6.37146 6.3888 6.50202 6.55396 6.66675C6.65396 6.76525 6.74071 6.87325 6.81421 6.99075L6.81571 6.98775L7.35121 7.9155L7.34896 7.91475C7.43496 8.04875 7.49221 8.19825 7.52071 8.36325C7.55296 8.55525 7.53571 8.757 7.52596 8.86575L7.52371 8.895C7.51846 8.99775 7.53871 9.1335 7.58971 9.29175C8.22721 9.852 9.20746 9.7995 9.77971 9.13875C10.021 8.85733 10.1537 8.49884 10.1537 8.12812C10.1537 7.7574 10.021 7.39891 9.77971 7.1175L9.77896 7.11675C9.75358 7.08723 9.72706 7.0587 9.69946 7.03125C9.57924 6.98983 9.45423 6.96388 9.32746 6.954L9.23671 7.01025L9.23371 7.0125C9.09452 7.10103 8.93756 7.15787 8.77396 7.179C8.65082 7.19277 8.52617 7.18139 8.40756 7.14555C8.28896 7.10971 8.17886 7.05016 8.08396 6.9705L8.04196 6.942L7.98946 6.8895C7.95296 6.852 7.91796 6.814 7.88446 6.7755V6.7785L7.23046 6.10425L7.22746 6.10275L7.17496 6.05025C7.00969 5.88498 6.87859 5.68878 6.78914 5.47284C6.69969 5.25691 6.65366 5.02547 6.65366 4.79175C6.65366 4.55802 6.69969 4.32658 6.78914 4.11065C6.87859 3.89471 7.00969 3.69851 7.17496 3.53325L9.50971 1.194C9.64955 1.05315 9.81588 0.941373 9.99911 0.865093C10.1823 0.788813 10.3789 0.749542 10.5773 0.749542C10.7758 0.749542 10.9723 0.788813 11.1556 0.865093C11.3388 0.941373 11.5051 1.05315 11.645 1.194ZM10.5747 2.2515L10.571 2.25375L8.23621 4.593C8.18918 4.63903 8.16005 4.70028 8.154 4.76581C8.14796 4.83134 8.1654 4.89689 8.20321 4.95075L8.20621 4.953L8.25871 5.0055C8.28581 5.03217 8.3181 5.05299 8.35358 5.06667C8.38906 5.08034 8.42697 5.08658 8.46496 5.085H8.47021C8.93034 5.06333 9.38938 5.14661 9.81258 5.32852C10.2358 5.51043 10.6121 5.78621 10.913 6.135C11.3907 6.68915 11.6535 7.39647 11.6535 8.12812C11.6535 8.85977 11.3907 9.56709 10.913 10.1212C10.6399 10.4378 10.3046 10.6947 9.92795 10.8759C9.55125 11.0572 9.14126 11.1588 8.72354 11.1746C8.30582 11.1903 7.88933 11.1199 7.50005 10.9675C7.11077 10.8152 6.75705 10.5843 6.46096 10.2892L6.45571 10.284L6.45121 10.2787C6.15112 9.97134 5.91842 9.60474 5.76798 9.20235C5.61753 8.79996 5.55265 8.37062 5.57746 7.94175V7.92825C5.57933 7.89375 5.57395 7.85925 5.56168 7.82695C5.54941 7.79466 5.53051 7.7653 5.50621 7.74075L5.50171 7.73625L5.49646 7.731C5.47085 7.70499 5.44032 7.68433 5.40665 7.67023C5.37298 7.65613 5.33684 7.64887 5.30034 7.64887C5.26383 7.64887 5.22769 7.65613 5.19402 7.67023C5.16035 7.68433 5.12982 7.70499 5.10421 7.731L2.75446 10.0852L2.75146 10.089L2.75071 10.0905L2.74996 10.0935V10.0957L2.75146 10.0972L2.75446 10.1017L7.13296 14.4877C7.55896 14.9152 7.55896 15.5977 7.13296 16.0252C7.00898 16.1502 6.85614 16.2428 6.68793 16.2947C6.51972 16.3466 6.34132 16.3563 6.16846 16.323C5.90975 16.2803 5.64444 16.3042 5.3975 16.3924C5.15057 16.4805 4.93014 16.6301 4.75696 16.827C4.51462 17.1084 4.38089 17.4672 4.37993 17.8385C4.37897 18.2099 4.51083 18.5694 4.75171 18.852C4.89 19.0132 5.06018 19.1447 5.25153 19.2368C5.44287 19.329 5.65123 19.3805 5.86347 19.3881C6.0757 19.3957 6.28721 19.3592 6.48467 19.2811C6.68212 19.2029 6.86123 19.0846 7.01071 18.9337C7.18241 18.7615 7.31103 18.5512 7.3861 18.3198C7.46117 18.0885 7.48056 17.8427 7.44271 17.6025L7.44121 17.592L7.43971 17.5822C7.4159 17.4142 7.43149 17.2429 7.48524 17.0819C7.539 16.9209 7.62945 16.7745 7.74946 16.6545L7.76446 16.6395C8.19196 16.212 8.87596 16.212 9.30346 16.6395L13.6512 20.9962L13.6535 20.9977L13.655 20.9992H13.6565L13.658 21H13.6595L13.6602 20.9992L13.664 20.9962L15.9987 18.657C16.025 18.631 16.0458 18.6 16.06 18.5659C16.0743 18.5318 16.0816 18.4952 16.0816 18.4582C16.0816 18.4213 16.0743 18.3847 16.06 18.3506C16.0458 18.3165 16.025 18.2855 15.9987 18.2595L15.9837 18.2445C15.9565 18.2177 15.9241 18.1968 15.8885 18.1832C15.8529 18.1695 15.8148 18.1633 15.7767 18.165H15.7722C15.3121 18.1867 14.853 18.1034 14.4298 17.9215C14.0066 17.7396 13.6304 17.4638 13.3295 17.115C12.8517 16.5608 12.5889 15.8535 12.5889 15.1219C12.5889 14.3902 12.8517 13.6829 13.3295 13.1287C13.6027 12.8125 13.9381 12.556 14.3148 12.375C14.6915 12.194 15.1015 12.0925 15.5191 12.0768C15.9367 12.0612 16.3531 12.1316 16.7423 12.2838C17.1315 12.436 17.4853 12.6667 17.7815 12.9615L17.7837 12.963C18.0899 13.2664 18.327 13.6321 18.4791 14.0354C18.6312 14.4387 18.6946 14.87 18.665 15.3C18.6627 15.3391 18.6688 15.3782 18.6827 15.4148C18.6967 15.4514 18.7182 15.4846 18.746 15.5122C18.7716 15.5383 18.8021 15.5589 18.8358 15.573C18.8694 15.5871 18.9056 15.5944 18.9421 15.5944C18.9786 15.5944 19.0147 15.5871 19.0484 15.573C19.0821 15.5589 19.1126 15.5383 19.1382 15.5122L21.4955 13.1505L21.4985 13.1467L21.4992 13.1452V13.1437L21.5 13.1422V13.14L21.4985 13.1385L21.4955 13.1347L17.1245 8.7555C17.0231 8.65477 16.9427 8.535 16.8878 8.40306C16.8329 8.27113 16.8046 8.12964 16.8046 7.98675C16.8046 7.84385 16.8329 7.70236 16.8878 7.57043C16.9427 7.43849 17.0231 7.31872 17.1245 7.218C17.2484 7.09302 17.4013 7.00049 17.5695 6.94856C17.7377 6.89663 17.9161 6.88691 18.089 6.92025C18.3303 6.96077 18.5777 6.94313 18.8108 6.86877C19.044 6.79442 19.2559 6.66551 19.4292 6.49275C19.5789 6.34259 19.6961 6.16326 19.7737 5.9659C19.8512 5.76853 19.8873 5.55735 19.8797 5.34545C19.8722 5.13355 19.8212 4.92545 19.7299 4.73409C19.6386 4.54272 19.5089 4.37216 19.349 4.233C18.7602 3.74925 17.8842 3.7575 17.3195 4.248C17.121 4.41957 16.9698 4.63906 16.8801 4.8856C16.7904 5.13214 16.7653 5.39752 16.8072 5.6565L16.8087 5.66625L16.8102 5.676C16.853 5.99475 16.7645 6.33975 16.5005 6.60375L16.4855 6.61875C16.058 7.04625 15.3747 7.04625 14.9472 6.61875L10.5935 2.265L10.5837 2.25525L10.58 2.2515H10.5785L10.577 2.25L10.5747 2.2515Z" fill="#C43B3B"/>
</svg>
